<svg xmlns="http://www.w3.org/2000/svg" width="800" height="800" viewBox="0 0 24 24" fill="none" xmlns:v="https://vecta.io/nano"><path fill-rule="evenodd" d="M3.5 12a8.5 8.5 0 0 1 17 0 8.5 8.5 0 0 1-8.5 8.5c-1.672 0-3.229-.482-4.542-1.314a1 1 0 0 0-.821-.113l-2.879.859 1.084-2.537a1 1 0 0 0-.07-.92C3.966 15.176 3.5 13.644 3.5 12zM12 1.5C6.201 1.5 1.5 6.201 1.5 12c0 1.838.473 3.568 1.305 5.073L1.08 21.107a1 1 0 0 0 1.206 1.351l4.499-1.343C8.322 21.997 10.104 22.5 12 22.5c5.799 0 10.5-4.701 10.5-10.5S17.799 1.5 12 1.5zm2.293 12.682l-1.314.926c-.616-.351-1.296-.84-1.979-1.523a10.2 10.2 0 0 1-1.624-2.114l.835-.709a1 1 0 0 0 .236-1.232l-1.064-2a1 1 0 0 0-1.54-.284l-.316.275c-.759.662-1.207 1.75-.836 2.852A12.05 12.05 0 0 0 9.586 15c1.814 1.814 3.656 2.528 4.733 2.805.868.223 1.689-.076 2.268-.548l.591-.482a1 1 0 0 0-.12-1.634l-1.678-1a1 1 0 0 0-1.088.041z" fill="#000"/></svg>