<svg xmlns="http://www.w3.org/2000/svg" width="800" height="800" viewBox="0 0 48 48" xmlns:v="https://vecta.io/nano"><path d="M24 2a22 22 0 1 0 22 22A21.9 21.9 0 0 0 24 2zm16.1 14h-4.9a27.8 27.8 0 0 0-3-8 18.5 18.5 0 0 1 7.9 8zm1.9 8a17.5 17.5 0 0 1-.5 4h-5.7l.2-4c0-1.4-.1-2.7-.2-4h5.7a17.5 17.5 0 0 1 .5 4zM6 24a17.5 17.5 0 0 1 .5-4h5.7l-.2 4c0 1.4.1 2.7.2 4H6.5a17.5 17.5 0 0 1-.5-4zm10 0c0-1.4.1-2.7.2-4H22v8h-5.8l-.2-4zM26 6.7a11.7 11.7 0 0 1 3 3.7 21.7 21.7 0 0 1 2.1 5.6H26zm-4 0V16h-5.1a21.7 21.7 0 0 1 2.1-5.6 11.7 11.7 0 0 1 3-3.7zM22 32v9.3a11.7 11.7 0 0 1-3-3.7 21.7 21.7 0 0 1-2.1-5.6zm4 9.3V32h5.1a21.7 21.7 0 0 1-2.1 5.6 11.7 11.7 0 0 1-3 3.7zM26 28v-8h5.8l.2 4c0 1.4-.1 2.7-.2 4zM15.8 8a27.8 27.8 0 0 0-3 8H7.9a18.5 18.5 0 0 1 7.9-8zM7.9 32h4.9a27.8 27.8 0 0 0 3 8 18.5 18.5 0 0 1-7.9-8zm24.3 8a27.8 27.8 0 0 0 3-8h4.9a18.5 18.5 0 0 1-7.9 8z"/></svg>